<svg width="21" height="18" viewBox="0 0 21 18" fill="none" xmlns="http://www.w3.org/2000/svg">
<path d="M8 4V2C8 1.46957 8.21071 0.960859 8.58579 0.585787C8.96086 0.210714 9.46957 0 10 0L19 0C19.5304 0 20.0391 0.210714 20.4142 0.585787C20.7893 0.960859 21 1.46957 21 2L21 16C21 16.5304 20.7893 17.0391 20.4142 17.4142C20.0391 17.7893 19.5304 18 19 18L10 18C9.46957 18 8.96086 17.7893 8.58579 17.4142C8.21071 17.0391 8 16.5304 8 16L8 14H10L10 16L19 16L19 2L10 2V4L8 4ZM5.5 14.5L6.914 13.086L3.828 10L14 10V8L3.828 8L6.914 4.914L5.5 3.5L0 9L5.5 14.5Z" fill="black"/>
</svg>
