<svg width="24" height="24" viewBox="0 0 24 24" fill="none" xmlns="http://www.w3.org/2000/svg">
<g clip-path="url(#clip0_117_2414)">
<path d="M23.06 15.3333L20.34 12L23.0067 8.73333C23.1525 8.55463 23.2444 8.33805 23.2716 8.10898C23.2987 7.87991 23.26 7.64785 23.16 7.44C23.0587 7.20702 22.8906 7.00926 22.6771 6.87164C22.4635 6.73402 22.214 6.66269 21.96 6.66666H1.29333C1.12611 6.66402 0.960006 6.69434 0.804504 6.75589C0.649001 6.81745 0.507149 6.90904 0.387048 7.02543C0.266946 7.14181 0.170949 7.28072 0.104539 7.43421C0.0381284 7.5877 0.0026059 7.75277 0 7.92L0 16.0867C0.00700716 16.4232 0.147001 16.7433 0.389366 16.9769C0.631732 17.2105 0.956746 17.3387 1.29333 17.3333H22.0333C22.2789 17.3374 22.5204 17.2712 22.7295 17.1424C22.9386 17.0137 23.1065 16.8278 23.2133 16.6067C23.3093 16.4013 23.3458 16.1731 23.3187 15.9481C23.2916 15.723 23.202 15.5101 23.06 15.3333ZM1.33333 16V8H21.8533L18.6267 11.9533L21.9 16H1.33333Z" fill="black"/>
<path d="M6.26016 12.9L4.08683 10H3.3335V14.12H4.08683V11.2267L6.26016 14.12H7.00683V10H6.26016V12.9Z" fill="black"/>
<path d="M8.12012 14.12H11.2268V13.44H8.87345V12.3667H11.0001V11.68H8.87345V10.6867H11.2268V10H8.12012V14.12Z" fill="black"/>
<path d="M16.3465 12.9533L15.3732 10H14.5599L13.5799 12.9533L12.6999 10H11.8799L13.1866 14.12H13.9265L14.9666 11.06L15.9999 14.12H16.7532L18.0532 10H17.2332L16.3465 12.9533Z" fill="black"/>
</g>
<defs>
<clipPath id="clip0_117_2414">
<rect width="24" height="24" fill="white"/>
</clipPath>
</defs>
</svg>
