<svg width="142" height="40" viewBox="0 0 142 40" fill="none" xmlns="http://www.w3.org/2000/svg">
<path d="M22.5469 31V10.375H25.6875V19.8672L28.8281 10.375H32.0742L28.6523 20.5469L32.3438 31H29.0273L25.7109 21.3672V31H22.5469ZM35.4713 31V10.375H38.6119V31H35.4713ZM46.3917 28.5625H47.423C48.0011 28.5625 48.4191 28.375 48.6769 28C48.9425 27.625 49.0753 26.9375 49.0753 25.9375L49.0636 15.7539C49.0636 14.6836 48.9308 13.9219 48.6652 13.4688C48.4073 13.0156 47.9581 12.7891 47.3175 12.7891H46.3917V28.5625ZM43.2511 31V10.375H47.88C49.3956 10.375 50.4933 10.8242 51.173 11.7227C51.8605 12.6133 52.2042 13.9297 52.2042 15.6719L52.2159 24.9766C52.2159 27.0547 51.8722 28.5781 51.1847 29.5469C50.4972 30.5156 49.3605 31 47.7745 31H43.2511ZM56.0817 25.1992V23.3594H59.0583V25.4336C59.0583 26.582 59.1559 27.3906 59.3512 27.8594C59.5466 28.3203 59.9137 28.5508 60.4528 28.5508C60.9919 28.5508 61.3473 28.3594 61.5192 27.9766C61.6989 27.5938 61.7887 26.9688 61.7887 26.1016C61.7887 25.2344 61.6325 24.4805 61.32 23.8398C61.0075 23.1914 60.5114 22.5156 59.8317 21.8125L58.3083 20.2422C57.5973 19.5 57.0427 18.7305 56.6442 17.9336C56.2536 17.1367 56.0583 16.2148 56.0583 15.168C56.0583 13.4648 56.3864 12.1992 57.0427 11.3711C57.6989 10.543 58.8278 10.1289 60.4294 10.1289C62.0309 10.1289 63.113 10.6133 63.6755 11.582C64.2458 12.543 64.5309 13.9492 64.5309 15.8008V17.0781H61.6364V15.6016C61.6364 14.6016 61.5505 13.8867 61.3786 13.457C61.2067 13.0195 60.8747 12.8008 60.3825 12.8008C59.8981 12.8008 59.5466 12.9648 59.3278 13.293C59.1169 13.6211 59.0114 14.1133 59.0114 14.7695C59.0114 15.4258 59.1208 15.9492 59.3395 16.3398C59.5583 16.7305 59.9528 17.2305 60.5231 17.8398L62.2223 19.6797C63.0739 20.6016 63.7145 21.5352 64.1442 22.4805C64.5817 23.4258 64.8005 24.457 64.8005 25.5742C64.8005 27.5039 64.4762 28.9297 63.8278 29.8516C63.1794 30.7734 62.0427 31.2344 60.4177 31.2344C58.8005 31.2344 57.6716 30.7227 57.0309 29.6992C56.3981 28.668 56.0817 27.168 56.0817 25.1992ZM73.9031 31V28.2109L78.1805 13.082H74.2898V10.375H81.4734V12.918L77.1961 28.293H81.3797V31H73.9031ZM88.14 25.2695C88.14 26.4805 88.2298 27.3242 88.4095 27.8008C88.597 28.2773 88.9759 28.5156 89.5462 28.5156C90.1166 28.5156 90.4916 28.2734 90.6712 27.7891C90.8509 27.2969 90.9408 26.457 90.9408 25.2695V15.6602C90.9408 14.6836 90.847 13.9727 90.6595 13.5273C90.4798 13.0742 90.1205 12.8477 89.5814 12.8477C89.0502 12.8477 88.6752 13.0742 88.4564 13.5273C88.2455 13.9727 88.14 14.6797 88.14 15.6484V25.2695ZM94.0931 25.2344C94.0931 27.25 93.7337 28.7539 93.015 29.7461C92.2962 30.7383 91.1439 31.2344 89.558 31.2344C87.9798 31.2344 86.8197 30.7383 86.0775 29.7461C85.3431 28.7461 84.9759 27.2422 84.9759 25.2344V15.8008C84.9759 12.0195 86.5189 10.1289 89.6048 10.1289C91.1986 10.1289 92.3431 10.6094 93.0384 11.5703C93.7416 12.5312 94.0931 13.9414 94.0931 15.8008V25.2344ZM98.3925 31V10.375H100.853L105.225 22.75L105.002 17.125V10.375H107.826V31H105.6L101.111 18.1914L101.287 23.6055V31H98.3925ZM112.372 31V10.375H119.286V13.082H115.512V19.082H119.098V21.7305H115.512V28.293H119.426V31H112.372Z" fill="black"/>
<rect x="1" y="1" width="140" height="38" stroke="black" stroke-width="2"/>
</svg>
