<svg width="22" height="20" viewBox="0 0 22 20" fill="none" xmlns="http://www.w3.org/2000/svg">
<path d="M16.7999 17.817L14.6279 18.955C14.5634 18.9886 14.4909 19.0035 14.4185 18.9982C14.346 18.993 14.2764 18.9677 14.2175 18.9251C14.1586 18.8826 14.1126 18.8245 14.0848 18.7574C14.057 18.6903 14.0484 18.6167 14.0599 18.545L14.4749 16.134L12.7179 14.427C12.6655 14.3763 12.6283 14.3119 12.6107 14.2411C12.5932 14.1703 12.5958 14.096 12.6185 14.0267C12.6411 13.9573 12.6828 13.8957 12.7387 13.8489C12.7947 13.8021 12.8626 13.772 12.9349 13.762L15.3629 13.41L16.4489 11.217C16.4814 11.1517 16.5314 11.0967 16.5934 11.0583C16.6555 11.0199 16.7269 10.9995 16.7999 10.9995C16.8728 10.9995 16.9443 11.0199 17.0063 11.0583C17.0684 11.0967 17.1184 11.1517 17.1509 11.217L18.2369 13.41L20.6649 13.762C20.7369 13.7724 20.8046 13.8027 20.8603 13.8495C20.9161 13.8964 20.9575 13.9579 20.9801 14.027C21.0027 14.0962 21.0055 14.1704 20.9881 14.241C20.9708 14.3117 20.934 14.3761 20.8819 14.427L19.1249 16.134L19.5389 18.544C19.5513 18.6159 19.5433 18.6898 19.5159 18.7573C19.4884 18.8249 19.4425 18.8834 19.3835 18.9262C19.3244 18.969 19.2546 18.9944 19.1818 18.9995C19.1091 19.0046 19.0363 18.9892 18.9719 18.955L16.7999 17.817ZM5.1999 17.817L3.0279 18.955C2.96344 18.9886 2.89093 19.0035 2.81846 18.9982C2.74598 18.993 2.6764 18.9677 2.61749 18.9251C2.55857 18.8826 2.51263 18.8245 2.4848 18.7574C2.45698 18.6903 2.44835 18.6167 2.4599 18.545L2.8749 16.134L1.1179 14.427C1.06545 14.3763 1.02832 14.3119 1.01074 14.2411C0.993156 14.1703 0.995831 14.096 1.01846 14.0267C1.04109 13.9573 1.08276 13.8957 1.13871 13.8489C1.19466 13.8021 1.26264 13.772 1.3349 13.762L3.7629 13.41L4.8489 11.217C4.88137 11.1517 4.93143 11.0967 4.99344 11.0583C5.05545 11.0199 5.12695 10.9995 5.1999 10.9995C5.27284 10.9995 5.34434 11.0199 5.40635 11.0583C5.46836 11.0967 5.51842 11.1517 5.5509 11.217L6.6369 13.41L9.0649 13.762C9.13694 13.7724 9.20464 13.8027 9.26035 13.8495C9.31606 13.8964 9.35755 13.9579 9.38012 14.027C9.4027 14.0962 9.40547 14.1704 9.38811 14.241C9.37075 14.3117 9.33396 14.3761 9.2819 14.427L7.5249 16.134L7.9389 18.544C7.95132 18.6159 7.94335 18.6898 7.91587 18.7573C7.8884 18.8249 7.84254 18.8834 7.78349 18.9262C7.72444 18.969 7.65457 18.9944 7.58181 18.9995C7.50906 19.0046 7.43633 18.9892 7.3719 18.955L5.1999 17.817ZM10.9999 7.81701L8.8279 8.95501C8.76344 8.98855 8.69093 9.00352 8.61846 8.99825C8.54598 8.99297 8.47641 8.96766 8.41749 8.92513C8.35857 8.8826 8.31263 8.82453 8.2848 8.75741C8.25698 8.69028 8.24835 8.61675 8.2599 8.54501L8.6749 6.13401L6.9179 4.42701C6.86545 4.37631 6.82832 4.31189 6.81074 4.2411C6.79316 4.1703 6.79583 4.096 6.81846 4.02665C6.84109 3.95731 6.88276 3.89572 6.93871 3.84893C6.99466 3.80213 7.06264 3.77201 7.1349 3.76201L9.5629 3.41001L10.6489 1.21701C10.6814 1.15169 10.7314 1.09673 10.7934 1.05831C10.8555 1.0199 10.927 0.999542 10.9999 0.999542C11.0728 0.999542 11.1443 1.0199 11.2063 1.05831C11.2684 1.09673 11.3184 1.15169 11.3509 1.21701L12.4369 3.41001L14.8649 3.76201C14.9369 3.77237 15.0046 3.80268 15.0603 3.84952C15.1161 3.89636 15.1575 3.95786 15.1801 4.02705C15.2027 4.09624 15.2055 4.17037 15.1881 4.24105C15.1708 4.31173 15.134 4.37615 15.0819 4.42701L13.3249 6.13401L13.7389 8.54401C13.7513 8.61587 13.7433 8.68978 13.7159 8.75735C13.6884 8.82491 13.6425 8.88341 13.5835 8.92622C13.5244 8.96902 13.4546 8.99441 13.3818 8.9995C13.3091 9.00459 13.2363 8.98917 13.1719 8.95501L10.9999 7.81701Z" stroke="black" stroke-width="2" stroke-linecap="round" stroke-linejoin="round"/>
</svg>
