<svg width="142" height="40" viewBox="0 0 142 40" fill="none" xmlns="http://www.w3.org/2000/svg">
<path d="M22.5469 31V10.375H25.6875V19.8672L28.8281 10.375H32.0742L28.6523 20.5469L32.3438 31H29.0273L25.7109 21.3672V31H22.5469ZM35.565 31V10.375H38.7056V31H35.565ZM43.3097 31V10.375H47.9386C48.9855 10.375 49.8253 10.5859 50.4581 11.0078C51.0909 11.4219 51.548 12.0234 51.8292 12.8125C52.1183 13.6016 52.2628 14.5547 52.2628 15.6719L52.2745 24.9766C52.2745 26.3281 52.1261 27.4531 51.8292 28.3516C51.5402 29.2422 51.0714 29.9062 50.423 30.3438C49.7745 30.7812 48.9113 31 47.8331 31H43.3097ZM46.4503 28.5625H47.4816C47.8488 28.5625 48.1534 28.4883 48.3956 28.3398C48.6456 28.1914 48.8292 27.9297 48.9464 27.5547C49.0714 27.1719 49.1339 26.6328 49.1339 25.9375L49.1222 15.7539C49.1222 14.6992 48.9933 13.9414 48.7355 13.4805C48.4777 13.0195 48.0245 12.7891 47.3761 12.7891H46.4503V28.5625ZM60.3239 31.2344C59.4645 31.2344 58.7458 31.1016 58.1677 30.8359C57.5973 30.5625 57.1442 30.168 56.8083 29.6523C56.4802 29.1289 56.2458 28.4961 56.1052 27.7539C55.9645 27.0039 55.8942 26.1523 55.8942 25.1992V23.3594H58.8708V25.4336C58.8708 26.543 58.9645 27.3398 59.152 27.8242C59.3395 28.3086 59.7106 28.5508 60.2653 28.5508C60.6403 28.5508 60.9216 28.4648 61.1091 28.293C61.3044 28.1133 61.4333 27.832 61.4958 27.4492C61.5661 27.0586 61.6012 26.5508 61.6012 25.9258C61.6012 25.1523 61.4372 24.4453 61.1091 23.8047C60.7887 23.1641 60.3005 22.5 59.6442 21.8125L58.1208 20.2422C57.6989 19.8047 57.3161 19.3398 56.9723 18.8477C56.6364 18.3555 56.3669 17.8086 56.1637 17.207C55.9684 16.5977 55.8708 15.918 55.8708 15.168C55.8708 14.082 56.0036 13.1641 56.2692 12.4141C56.5348 11.6641 56.9841 11.0977 57.6169 10.7148C58.2497 10.3242 59.1169 10.1289 60.2184 10.1289C61.0466 10.1289 61.7262 10.2578 62.2575 10.5156C62.7966 10.7656 63.2145 11.1367 63.5114 11.6289C63.8161 12.1133 64.0309 12.707 64.1559 13.4102C64.2809 14.1055 64.3434 14.9023 64.3434 15.8008V17.0781H61.4489V15.6016C61.4489 14.9766 61.4137 14.457 61.3434 14.043C61.2809 13.6289 61.1598 13.3203 60.9802 13.1172C60.8005 12.9062 60.5387 12.8008 60.195 12.8008C59.8669 12.8008 59.6012 12.875 59.3981 13.0234C59.195 13.1641 59.0466 13.3867 58.9528 13.6914C58.8669 13.9883 58.8239 14.375 58.8239 14.8516C58.8239 15.2812 58.8786 15.6523 58.988 15.9648C59.0973 16.2773 59.2653 16.5781 59.4919 16.8672C59.7184 17.1562 59.9997 17.4805 60.3356 17.8398L62.0348 19.6797C62.8473 20.5547 63.4802 21.4648 63.9333 22.4102C64.3864 23.3555 64.613 24.4102 64.613 25.5742C64.613 26.8086 64.4802 27.8477 64.2145 28.6914C63.9489 29.5273 63.5036 30.1602 62.8786 30.5898C62.2536 31.0195 61.402 31.2344 60.3239 31.2344ZM73.2117 31V28.2109L77.4891 13.082H73.5984V10.375H80.782V12.918L76.5047 28.293H80.6883V31H73.2117ZM88.5619 31.2344C87.4916 31.2344 86.6166 31.0078 85.9369 30.5547C85.265 30.1016 84.7689 29.4297 84.4486 28.5391C84.1283 27.6484 83.9681 26.5469 83.9681 25.2344V15.8008C83.9681 14.6133 84.1244 13.5977 84.4369 12.7539C84.7494 11.9102 85.2455 11.2617 85.9252 10.8086C86.6048 10.3555 87.4955 10.1289 88.597 10.1289C89.4252 10.1289 90.1244 10.2578 90.6947 10.5156C91.265 10.7734 91.7259 11.1484 92.0775 11.6406C92.4291 12.125 92.683 12.7188 92.8392 13.4219C93.0033 14.1172 93.0853 14.9102 93.0853 15.8008V25.2344C93.0853 26.5469 92.9291 27.6484 92.6166 28.5391C92.3119 29.4297 91.8275 30.1016 91.1634 30.5547C90.4994 31.0078 89.6322 31.2344 88.5619 31.2344ZM88.5619 28.5156C88.9525 28.5156 89.2455 28.3984 89.4408 28.1641C89.6361 27.9297 89.765 27.5742 89.8275 27.0977C89.8978 26.6133 89.933 26.0039 89.933 25.2695V15.6602C89.933 14.7617 89.847 14.0703 89.6752 13.5859C89.5111 13.0938 89.1517 12.8477 88.597 12.8477C88.0267 12.8477 87.64 13.0859 87.4369 13.5625C87.2337 14.0312 87.1322 14.7266 87.1322 15.6484V25.2695C87.1322 26.0195 87.1634 26.6367 87.2259 27.1211C87.2962 27.5977 87.433 27.9492 87.6361 28.1758C87.847 28.4023 88.1556 28.5156 88.5619 28.5156ZM97.3847 31V10.375H99.8456L104.217 22.75L103.994 17.125V10.375H106.818V31H104.592L100.103 18.1914L100.279 23.6055V31H97.3847ZM111.364 31V10.375H118.278V13.082H114.504V19.082H118.09V21.7305H114.504V28.293H118.418V31H111.364Z" fill="white"/>
<rect x="1" y="1" width="140" height="38" stroke="white" stroke-width="2"/>
</svg>
